# xmcd CD database file
#
# Track frame offsets:
#	150
#	14935
#	32067
#	45140
#	59942
#	74660
#	90255
#	100562
#	113912
#	125097
#	135555
#	146257
#	158155
#	168767
#	181915
#	192997
#	203410
#	218585
#	231185
#	247177
#	259897
#	270922
#	286580
#	299597
#	312560
#
# Disc length: 4326 seconds
#
# Revision: 0
# Processed by: cddbd v1.5.1PL0 Copyright (c) Steve Scherf et al.
# Submitted via: CDex 1.51
#
DISCID=6f10e419
DTITLE=Various Artist - 25 Succès country Vol. 1
DYEAR=1900
DGENRE=Country
TTITLE0=Jane - As-tu déjà pleuré
TTITLE1=Jean-Rock Cummings - L'hôtel
TTITLE2=Bernard Harvie - Le public
TTITLE3=Marcel Racette - Jos Solitaire
TTITLE4=Régis Gagné et Paul Daraîche - Les anges du Mexique
TTITLE5=Albert Babin - Comme une vieille chanson
TTITLE6=Julie - Le rocher bleu
TTITLE7=Fernand et yannick St-Jacques - Elle ne pleure plus maintenant
TTITLE8=Luc Daraîche - Être naturel
TTITLE9=Diane Pépin - On est fait l'un pour l'autre
TTITLE10=Ade Gagnon - De la neige sur la Bible de mon père
TTITLE11=Julie et André - Chanter l,amour
TTITLE12=Marie King - Rien n'efface ton souvenir
TTITLE13=André Clavier - Coeur de maman
TTITLE14=Liette Beaudry - Je pleure toutes les larmes de mon coeur
TTITLE15=Michel Grégoire - Les vues de cowboy
TTITLE16=André Clavier - Un verre sur la table
TTITLE17=Fady - Au bar country
TTITLE18=Jean-Rock Cummings - Avec toi
TTITLE19=Bernard Harvie - Le local
TTITLE20=Anthony - Chaque seconde
TTITLE21=Julie - Aujourd'hui
TTITLE22=Jane - Je marche avec le vent
TTITLE23=Ade Gagnon - Café du port
TTITLE24=Albert Babin - Rose blanche
EXTD=
EXTT0=
EXTT1=
EXTT2=
EXTT3=
EXTT4=
EXTT5=
EXTT6=
EXTT7=
EXTT8=
EXTT9=
EXTT10=
EXTT11=
EXTT12=
EXTT13=
EXTT14=
EXTT15=
EXTT16=
EXTT17=
EXTT18=
EXTT19=
EXTT20=
EXTT21=
EXTT22=
EXTT23=
EXTT24=
PLAYORDER=
